<svg xmlns="http://www.w3.org/2000/svg" version="1.1" xmlnsXlink="http://www.w3.org/1999/xlink" xmlnsSvgjs="http://svgjs.dev/svgjs" width="1000" height="623" viewBox="0 0 1000 623"><g transform="matrix(1,0,0,1,-0.6060606060606233,0.2522267206477409)"><svg viewBox="0 0 396 247" data-background-color="#282634" preserveAspectRatio="xMidYMid meet" height="623" width="1000" xmlns="http://www.w3.org/2000/svg" xmlnsXlink="http://www.w3.org/1999/xlink"><g id="tight-bounds" transform="matrix(1,0,0,1,0.2400000000000091,-0.09999999999999432)"><svg viewBox="0 0 395.52 247.2" height="247.2" width="395.52"><g><svg></svg></g><g><svg viewBox="0 0 395.52 247.2" height="247.2" width="395.52"><mask id="84960fd3-60cc-472d-a227-19a1123d274e"><rect width="395.52" height="247.2" fill="white"></rect><g transform="matrix(1,0,0,1,136.3689705882353,37.08)" id="clone"><svg viewBox="0 0 122.7820588235294 173.04" height="173.04" width="122.7820588235294"><g><svg viewBox="0 0 122.7820588235294 173.04" height="173.04" width="122.7820588235294"><g><svg viewBox="0 0 122.7820588235294 173.04" height="173.04" width="122.7820588235294"><g><svg viewBox="0 0 122.7820588235294 173.04" height="173.04" width="122.7820588235294"><g id="SvgjsG1308"><svg viewBox="0 0 122.7820588235294 173.04" height="173.04" width="122.7820588235294" id="SvgjsSvg1307"><g><svg viewBox="0 0 122.7820588235294 173.04" height="173.04" width="122.7820588235294"><g transform="matrix(1,0,0,1,0,0)"><svg width="122.7820588235294" viewBox="-1.25 -38.5 29.950000762939453 41.79999923706055" height="173.04" data-palette-color="#ff4057"><path d="M23.15-33.75L23.15-33.75 21.95-27.9 18.85-28.75Q15.55-29.5 13.1-29.5L13.1-29.5Q9.7-29.5 9.7-26.25L9.7-26.25Q9.7-25 10.88-23.98 12.05-22.95 13.85-22.28 15.65-21.6 17.7-20.6 19.75-19.6 21.55-18.45 23.35-17.3 24.53-15.3 25.7-13.3 25.7-10.7L25.7-10.7Q25.7-5.55 22.38-2.63 19.05 0.3 13 0.3L13 0.3Q9.9 0.3 6.83-0.53 3.75-1.35 1.75-2.45L1.75-2.45 3.9-7.8Q8.5-5.7 13-5.7L13-5.7Q15.55-5.7 17-6.88 18.45-8.05 18.45-9.9 18.45-11.75 16.8-12.98 15.15-14.2 12.8-15.18 10.45-16.15 8.1-17.38 5.75-18.6 4.1-20.83 2.45-23.05 2.45-26.1L2.45-26.1Q2.45-30.65 5.3-33.08 8.15-35.5 12.98-35.5 17.8-35.5 23.15-33.75Z" opacity="1" transform="matrix(1,0,0,1,0,0)" fill="black" class="wordmark-text-0" id="SvgjsPath1306" stroke-width="5" stroke="black" stroke-linejoin="round"></path></svg></g></svg></g></svg></g></svg></g><g></g></svg></g></svg></g></svg></g></mask><g mask="url(#84960fd3-60cc-472d-a227-19a1123d274e)"><g><path xmlns="http://www.w3.org/2000/svg" d="M245.89 41.128v0l-6.128 29.874-15.831-4.341c-11.235-2.553-21.022-3.83-29.363-3.83v0c-11.575 0-17.362 5.532-17.362 16.597v0c0 4.255 2.009 8.119 6.026 11.592 3.983 3.507 9.039 6.4 15.166 8.681 6.128 2.315 12.681 5.175 19.661 8.579 6.979 3.404 13.532 7.064 19.66 10.979 6.128 3.915 11.2 9.277 15.218 16.086 3.983 6.809 5.975 14.639 5.975 23.491v0c0 17.533-5.651 31.269-16.954 41.21-11.337 9.975-27.303 14.962-47.9 14.962v0c-10.554 0-21.056-1.413-31.508-4.238-10.486-2.792-19.133-6.06-25.942-9.805v0l10.98-27.32c15.66 7.149 31.15 10.724 46.47 10.724v0c8.681 0 15.49-2.009 20.426-6.026 4.936-3.983 7.405-9.124 7.405-15.422 0-6.298-2.809-11.541-8.426-15.729-5.617-4.153-12.426-7.898-20.427-11.234-8-3.302-16.001-7.047-24.001-11.235-8-4.153-14.809-10.026-20.426-17.617-5.617-7.558-8.426-16.528-8.426-26.912v0c0-15.49 4.851-27.371 14.554-35.644 9.703-8.239 22.775-12.358 39.219-12.358 16.409 0 33.721 2.979 51.934 8.936z" fill="#ff4057" fill-rule="nonzero" stroke="none" stroke-width="1" stroke-linecap="butt" stroke-linejoin="miter" stroke-miterlimit="10" stroke-dasharray="" stroke-dashoffset="0" font-family="none" font-weight="none" font-size="none" text-anchor="none" style="mix-blend-mode: normal" data-fill-palette-color="tertiary"></path></g></g><g transform="matrix(1,0,0,1,136.3689705882353,37.08)"><svg viewBox="0 0 122.7820588235294 173.04" height="173.04" width="122.7820588235294"><g><svg viewBox="0 0 122.7820588235294 173.04" height="173.04" width="122.7820588235294"><g><svg viewBox="0 0 122.7820588235294 173.04" height="173.04" width="122.7820588235294"><g><svg viewBox="0 0 122.7820588235294 173.04" height="173.04" width="122.7820588235294"><g id="textblocktransform"><svg viewBox="0 0 122.7820588235294 173.04" height="173.04" width="122.7820588235294" id="textblock"><g><svg viewBox="0 0 122.7820588235294 173.04" height="173.04" width="122.7820588235294"><g transform="matrix(1,0,0,1,0,0)"><svg width="122.7820588235294" viewBox="-1.25 -38.5 29.950000762939453 41.79999923706055" height="173.04" data-palette-color="#ff4057"><path d="M23.15-33.75L23.15-33.75 21.95-27.9 18.85-28.75Q15.55-29.5 13.1-29.5L13.1-29.5Q9.7-29.5 9.7-26.25L9.7-26.25Q9.7-25 10.88-23.98 12.05-22.95 13.85-22.28 15.65-21.6 17.7-20.6 19.75-19.6 21.55-18.45 23.35-17.3 24.53-15.3 25.7-13.3 25.7-10.7L25.7-10.7Q25.7-5.55 22.38-2.63 19.05 0.3 13 0.3L13 0.3Q9.9 0.3 6.83-0.53 3.75-1.35 1.75-2.45L1.75-2.45 3.9-7.8Q8.5-5.7 13-5.7L13-5.7Q15.55-5.7 17-6.88 18.45-8.05 18.45-9.9 18.45-11.75 16.8-12.98 15.15-14.2 12.8-15.18 10.45-16.15 8.1-17.38 5.75-18.6 4.1-20.83 2.45-23.05 2.45-26.1L2.45-26.1Q2.45-30.65 5.3-33.08 8.15-35.5 12.98-35.5 17.8-35.5 23.15-33.75Z" opacity="1" transform="matrix(1,0,0,1,0,0)" fill="#ff4057" class="wordmark-text-0" data-fill-palette-color="primary" id="text-0"></path></svg></g></svg></g></svg></g></svg></g><g></g></svg></g></svg></g></svg></g></svg></g><defs></defs></svg><rect width="395.52" height="247.2" fill="none" stroke="none" visibility="hidden"></rect></g></svg></g></svg>